<?xml version="1.0" encoding="UTF-8" standalone="no"?>
<!DOCTYPE svg PUBLIC "-//W3C//DTD SVG 1.1//EN"
 "http://www.w3.org/Graphics/SVG/1.1/DTD/svg11.dtd">
<!-- Generated by graphviz version 3.0.0 (0)
 -->
<!-- Pages: 1 -->
<svg width="722pt" height="442pt"
 viewBox="0.00 0.00 722.00 441.77" xmlns="http://www.w3.org/2000/svg" xmlns:xlink="http://www.w3.org/1999/xlink">
<g id="graph0" class="graph" transform="scale(1 1) rotate(0) translate(4 437.77)">
<polygon fill="white" stroke="transparent" points="-4,4 -4,-437.77 718,-437.77 718,4 -4,4"/>
<g id="clust1" class="cluster">
<title>cluster_astropy</title>
<polygon fill="none" stroke="blue" stroke-width="2" points="232,-278.77 232,-425.77 706,-425.77 706,-278.77 232,-278.77"/>
<text text-anchor="start" x="357.5" y="-411.57" font-family="sans-serif" font-weight="bold" font-size="14.00" fill="blue">Frames implemented in Astropy</text>
</g>
<g id="clust2" class="cluster">
<title>cluster_sunpy</title>
<polygon fill="none" stroke="crimson" stroke-width="2" points="8,-8 8,-258.77 651,-258.77 651,-8 8,-8"/>
<text text-anchor="start" x="431" y="-16.8" font-family="sans-serif" font-weight="bold" font-size="14.00" fill="crimson">Frames implemented in SunPy</text>
</g>
<g id="clust3" class="cluster">
<title>cluster_sunpy11</title>
<polygon fill="none" stroke="chocolate" stroke-width="2" points="16,-39 16,-186 340,-186 340,-39 16,-39"/>
<text text-anchor="start" x="170" y="-47.8" font-family="sans-serif" font-weight="bold" font-size="14.00" fill="chocolate">Observer&#45;based frames</text>
</g>
<!-- ICRS -->
<g id="node1" class="node">
<title>ICRS</title>
<ellipse fill="none" stroke="black" cx="460" cy="-376.77" rx="27" ry="18"/>
<text text-anchor="middle" x="460" y="-374.87" font-family="sans-serif" font-size="8.00">ICRS</text>
</g>
<!-- HCRS -->
<g id="node2" class="node">
<title>HCRS</title>
<ellipse fill="none" stroke="black" cx="267" cy="-304.77" rx="27" ry="18"/>
<text text-anchor="middle" x="267" y="-302.87" font-family="sans-serif" font-size="8.00">HCRS</text>
</g>
<!-- ICRS&#45;&gt;HCRS -->
<g id="edge1" class="edge">
<title>ICRS&#45;&gt;HCRS</title>
<path fill="none" stroke="black" d="M434.91,-370.03C401.75,-360.98 342.69,-342.41 294,-322.77 293.9,-322.73 293.81,-322.69 293.71,-322.65"/>
<polygon fill="black" stroke="black" points="295.21,-319.49 284.64,-318.74 292.44,-325.92 295.21,-319.49"/>
</g>
<!-- HeliocentricMeanEcliptic -->
<g id="node3" class="node">
<title>HeliocentricMeanEcliptic</title>
<ellipse fill="none" stroke="black" cx="388" cy="-304.77" rx="76.02" ry="18"/>
<text text-anchor="middle" x="388" y="-302.87" font-family="sans-serif" font-size="8.00">Heliocentric Aries Ecliptic (HAE)</text>
</g>
<!-- ICRS&#45;&gt;HeliocentricMeanEcliptic -->
<g id="edge2" class="edge">
<title>ICRS&#45;&gt;HeliocentricMeanEcliptic</title>
<path fill="none" stroke="black" d="M441.81,-363.25C430.96,-354.05 417.42,-341.25 406.53,-330.07"/>
<polygon fill="black" stroke="black" points="408.91,-327.49 399.49,-322.65 403.83,-332.31 408.91,-327.49"/>
</g>
<!-- geocentric -->
<g id="node12" class="node">
<title>geocentric</title>
<polygon fill="lightgrey" stroke="black" points="583.5,-322.77 486.5,-322.77 482.5,-318.77 482.5,-286.77 579.5,-286.77 583.5,-290.77 583.5,-322.77"/>
<polyline fill="none" stroke="black" points="579.5,-318.77 482.5,-318.77 "/>
<polyline fill="none" stroke="black" points="579.5,-318.77 579.5,-286.77 "/>
<polyline fill="none" stroke="black" points="579.5,-318.77 583.5,-322.77 "/>
<text text-anchor="middle" x="533" y="-307.37" font-family="sans-serif" font-size="8.00">Earth&#45;centered frames</text>
<text text-anchor="middle" x="533" y="-298.37" font-family="sans-serif" font-size="8.00">(including GEO)</text>
</g>
<!-- ICRS&#45;&gt;geocentric -->
<g id="edge21" class="edge">
<title>ICRS&#45;&gt;geocentric</title>
<path fill="none" stroke="black" d="M470.8,-359.89C479.13,-350.91 490.8,-339.5 501.84,-329.48"/>
<polygon fill="black" stroke="black" points="504.19,-332.08 509.34,-322.81 499.54,-326.85 504.19,-332.08"/>
</g>
<!-- astropy -->
<g id="node13" class="node">
<title>astropy</title>
<polygon fill="lightgrey" stroke="black" points="698.5,-322.77 605.5,-322.77 601.5,-318.77 601.5,-286.77 694.5,-286.77 698.5,-290.77 698.5,-322.77"/>
<polyline fill="none" stroke="black" points="694.5,-318.77 601.5,-318.77 "/>
<polyline fill="none" stroke="black" points="694.5,-318.77 694.5,-286.77 "/>
<polyline fill="none" stroke="black" points="694.5,-318.77 698.5,-322.77 "/>
<text text-anchor="middle" x="650" y="-302.87" font-family="sans-serif" font-size="8.00">Other Astropy frames</text>
</g>
<!-- ICRS&#45;&gt;astropy -->
<g id="edge22" class="edge">
<title>ICRS&#45;&gt;astropy</title>
<path fill="none" stroke="black" d="M481.95,-365.89C508.69,-355.3 554.6,-338.24 591.74,-324.99"/>
<polygon fill="black" stroke="black" points="593.21,-328.18 601.46,-321.53 590.87,-321.58 593.21,-328.18"/>
</g>
<!-- HCRS&#45;&gt;ICRS -->
<g id="edge3" class="edge">
<title>HCRS&#45;&gt;ICRS</title>
<path fill="none" stroke="black" d="M290.96,-313.62C297.87,-316.64 305.21,-320.03 312,-322.77 351.19,-338.58 397.1,-353.69 427.41,-363.71"/>
<polygon fill="black" stroke="black" points="426.47,-367.08 437.06,-366.9 428.67,-360.44 426.47,-367.08"/>
</g>
<!-- HeliographicStonyhurst -->
<g id="node4" class="node">
<title>HeliographicStonyhurst</title>
<ellipse fill="none" stroke="black" cx="185" cy="-232.38" rx="108.38" ry="18.27"/>
<text text-anchor="middle" x="185" y="-234.98" font-family="sans-serif" font-size="8.00">Heliographic Stonyhurst (HGS)</text>
<text text-anchor="middle" x="185" y="-225.98" font-family="sans-serif" font-size="8.00">Heliocentric Earth Equatorial (HEEQ)</text>
</g>
<!-- HCRS&#45;&gt;HeliographicStonyhurst -->
<g id="edge4" class="edge">
<title>HCRS&#45;&gt;HeliographicStonyhurst</title>
<path fill="none" stroke="black" d="M254.89,-288.5C245.17,-279.19 231.33,-267.11 218.47,-256.63"/>
<polygon fill="black" stroke="black" points="220.63,-253.88 210.64,-250.35 216.26,-259.34 220.63,-253.88"/>
</g>
<!-- HeliocentricMeanEcliptic&#45;&gt;ICRS -->
<g id="edge5" class="edge">
<title>HeliocentricMeanEcliptic&#45;&gt;ICRS</title>
<path fill="none" stroke="black" d="M410.58,-322.08C420.93,-331.15 432.9,-342.6 442.56,-352.59"/>
<polygon fill="black" stroke="black" points="440.02,-355 449.42,-359.89 445.12,-350.21 440.02,-355"/>
</g>
<!-- HeliocentricEarthEcliptic -->
<g id="node5" class="node">
<title>HeliocentricEarthEcliptic</title>
<ellipse fill="none" stroke="black" cx="388" cy="-232.38" rx="76.65" ry="18"/>
<text text-anchor="middle" x="388" y="-230.48" font-family="sans-serif" font-size="8.00">Heliocentric Earth Ecliptic (HEE)</text>
</g>
<!-- HeliocentricMeanEcliptic&#45;&gt;HeliocentricEarthEcliptic -->
<g id="edge6" class="edge">
<title>HeliocentricMeanEcliptic&#45;&gt;HeliocentricEarthEcliptic</title>
<path fill="none" stroke="black" d="M393.88,-286.73C394.7,-278.98 394.94,-269.61 394.61,-260.9"/>
<polygon fill="black" stroke="black" points="398.09,-260.49 393.91,-250.76 391.1,-260.97 398.09,-260.49"/>
</g>
<!-- GeocentricEarthEquatorial -->
<g id="node6" class="node">
<title>GeocentricEarthEquatorial</title>
<ellipse fill="none" stroke="black" cx="563" cy="-232.38" rx="79.96" ry="18"/>
<text text-anchor="middle" x="563" y="-230.48" font-family="sans-serif" font-size="8.00">Geocentric Earth Equatorial (GEI)</text>
</g>
<!-- HeliocentricMeanEcliptic&#45;&gt;GeocentricEarthEquatorial -->
<g id="edge7" class="edge">
<title>HeliocentricMeanEcliptic&#45;&gt;GeocentricEarthEquatorial</title>
<path fill="none" stroke="black" d="M428.96,-289.53C456.62,-278.96 492.91,-264.44 520.81,-252.81"/>
<polygon fill="black" stroke="black" points="522.43,-255.92 530.3,-248.83 519.73,-249.47 522.43,-255.92"/>
</g>
<!-- HeliographicStonyhurst&#45;&gt;HCRS -->
<g id="edge10" class="edge">
<title>HeliographicStonyhurst&#45;&gt;HCRS</title>
<path fill="none" stroke="black" d="M199.23,-250.67C210.47,-261.26 226.21,-274.79 239.77,-285.54"/>
<polygon fill="black" stroke="black" points="237.83,-288.47 247.87,-291.83 242.12,-282.94 237.83,-288.47"/>
</g>
<!-- HeliographicCarrington -->
<g id="node7" class="node">
<title>HeliographicCarrington</title>
<ellipse fill="none" stroke="black" cx="257" cy="-160" rx="75.38" ry="18"/>
<text text-anchor="middle" x="257" y="-158.1" font-family="sans-serif" font-size="8.00">Heliographic Carrington (HGC)</text>
</g>
<!-- HeliographicStonyhurst&#45;&gt;HeliographicCarrington -->
<g id="edge8" class="edge">
<title>HeliographicStonyhurst&#45;&gt;HeliographicCarrington</title>
<path fill="none" stroke="black" d="M208.31,-214.35C218.16,-205.61 229.39,-194.83 238.65,-185.25"/>
<polygon fill="black" stroke="black" points="241.28,-187.56 245.59,-177.88 236.19,-182.76 241.28,-187.56"/>
</g>
<!-- Heliocentric -->
<g id="node8" class="node">
<title>Heliocentric</title>
<ellipse fill="none" stroke="black" cx="94" cy="-160" rx="69.54" ry="18"/>
<text text-anchor="middle" x="94" y="-158.1" font-family="sans-serif" font-size="8.00">Heliocentric Cartesian (HCC)</text>
</g>
<!-- HeliographicStonyhurst&#45;&gt;Heliocentric -->
<g id="edge9" class="edge">
<title>HeliographicStonyhurst&#45;&gt;Heliocentric</title>
<path fill="none" stroke="black" d="M168.42,-213.99C157.19,-204.55 142.11,-192.79 128.41,-182.75"/>
<polygon fill="black" stroke="black" points="130.27,-179.77 120.11,-176.76 126.17,-185.45 130.27,-179.77"/>
</g>
<!-- HeliocentricInertial -->
<g id="node9" class="node">
<title>HeliocentricInertial</title>
<ellipse fill="none" stroke="black" cx="415" cy="-160" rx="64.19" ry="18"/>
<text text-anchor="middle" x="415" y="-158.1" font-family="sans-serif" font-size="8.00">Heliocentric Inertial (HCI)</text>
</g>
<!-- HeliographicStonyhurst&#45;&gt;HeliocentricInertial -->
<g id="edge11" class="edge">
<title>HeliographicStonyhurst&#45;&gt;HeliocentricInertial</title>
<path fill="none" stroke="black" d="M234.27,-215.94C263.65,-207.52 301.49,-196.67 335,-186 343.96,-183.15 353.5,-179.92 362.78,-176.76"/>
<polygon fill="black" stroke="black" points="363.99,-180.04 372.32,-173.5 361.73,-173.42 363.99,-180.04"/>
</g>
<!-- HeliocentricEarthEcliptic&#45;&gt;HeliocentricMeanEcliptic -->
<g id="edge16" class="edge">
<title>HeliocentricEarthEcliptic&#45;&gt;HeliocentricMeanEcliptic</title>
<path fill="none" stroke="black" d="M382.09,-250.76C381.29,-258.55 381.06,-267.94 381.41,-276.63"/>
<polygon fill="black" stroke="black" points="377.93,-277 382.12,-286.73 384.91,-276.51 377.93,-277"/>
</g>
<!-- GeocentricSolarEcliptic -->
<g id="node11" class="node">
<title>GeocentricSolarEcliptic</title>
<ellipse fill="none" stroke="black" cx="570" cy="-160" rx="73.35" ry="18"/>
<text text-anchor="middle" x="570" y="-158.1" font-family="sans-serif" font-size="8.00">Geocentric Solar Ecliptic (GSE)</text>
</g>
<!-- HeliocentricEarthEcliptic&#45;&gt;GeocentricSolarEcliptic -->
<g id="edge17" class="edge">
<title>HeliocentricEarthEcliptic&#45;&gt;GeocentricSolarEcliptic</title>
<path fill="none" stroke="black" d="M421.81,-216.11C449.18,-205.01 488,-189.96 519.1,-178.4"/>
<polygon fill="black" stroke="black" points="520.31,-181.68 528.48,-174.93 517.88,-175.12 520.31,-181.68"/>
</g>
<!-- GeocentricEarthEquatorial&#45;&gt;HeliocentricMeanEcliptic -->
<g id="edge20" class="edge">
<title>GeocentricEarthEquatorial&#45;&gt;HeliocentricMeanEcliptic</title>
<path fill="none" stroke="black" d="M521.5,-247.83C493.9,-258.39 457.86,-272.81 430.14,-284.37"/>
<polygon fill="black" stroke="black" points="428.57,-281.23 420.71,-288.32 431.28,-287.68 428.57,-281.23"/>
</g>
<!-- HeliographicCarrington&#45;&gt;HeliographicStonyhurst -->
<g id="edge12" class="edge">
<title>HeliographicCarrington&#45;&gt;HeliographicStonyhurst</title>
<path fill="none" stroke="black" d="M234.6,-177.23C224.75,-185.91 213.4,-196.78 203.97,-206.5"/>
<polygon fill="black" stroke="black" points="201.22,-204.32 196.88,-213.99 206.3,-209.13 201.22,-204.32"/>
</g>
<!-- Heliocentric&#45;&gt;HeliographicStonyhurst -->
<g id="edge14" class="edge">
<title>Heliocentric&#45;&gt;HeliographicStonyhurst</title>
<path fill="none" stroke="black" d="M109.77,-177.72C120.68,-186.93 135.45,-198.48 149.06,-208.51"/>
<polygon fill="black" stroke="black" points="147.2,-211.48 157.34,-214.53 151.31,-205.82 147.2,-211.48"/>
</g>
<!-- Helioprojective -->
<g id="node10" class="node">
<title>Helioprojective</title>
<ellipse fill="none" stroke="black" cx="100" cy="-88" rx="76.02" ry="18"/>
<text text-anchor="middle" x="100" y="-86.1" font-family="sans-serif" font-size="8.00">Helioprojective Cartesian (HPC)</text>
</g>
<!-- Heliocentric&#45;&gt;Helioprojective -->
<g id="edge13" class="edge">
<title>Heliocentric&#45;&gt;Helioprojective</title>
<path fill="none" stroke="black" d="M89.57,-141.7C89.43,-133.98 90,-124.71 91.08,-116.11"/>
<polygon fill="black" stroke="black" points="94.56,-116.52 92.64,-106.1 87.64,-115.45 94.56,-116.52"/>
</g>
<!-- HeliocentricInertial&#45;&gt;HeliographicStonyhurst -->
<g id="edge19" class="edge">
<title>HeliocentricInertial&#45;&gt;HeliographicStonyhurst</title>
<path fill="none" stroke="black" d="M383.32,-175.7C373.63,-179.2 362.96,-182.83 353,-186 321.42,-196.06 285.99,-206.27 255.77,-214.46"/>
<polygon fill="black" stroke="black" points="254.49,-211.18 245.74,-217.15 256.31,-217.94 254.49,-211.18"/>
</g>
<!-- Helioprojective&#45;&gt;Heliocentric -->
<g id="edge15" class="edge">
<title>Helioprojective&#45;&gt;Heliocentric</title>
<path fill="none" stroke="black" d="M104.43,-106.28C104.57,-114.03 104,-123.36 102.9,-132.01"/>
<polygon fill="black" stroke="black" points="99.42,-131.63 101.33,-142.05 106.34,-132.72 99.42,-131.63"/>
</g>
<!-- GeocentricSolarEcliptic&#45;&gt;HeliocentricEarthEcliptic -->
<g id="edge18" class="edge">
<title>GeocentricSolarEcliptic&#45;&gt;HeliocentricEarthEcliptic</title>
<path fill="none" stroke="black" d="M536.5,-176.15C509.24,-187.21 470.46,-202.24 439.32,-213.83"/>
<polygon fill="black" stroke="black" points="438.08,-210.56 429.92,-217.31 440.51,-217.12 438.08,-210.56"/>
</g>
<!-- geocentric&#45;&gt;ICRS -->
<g id="edge23" class="edge">
<title>geocentric&#45;&gt;ICRS</title>
<path fill="none" stroke="black" d="M521.02,-322.91C511.51,-333.05 498.16,-345.92 486.28,-356.42"/>
<polygon fill="black" stroke="black" points="483.65,-354.07 478.37,-363.25 488.22,-359.37 483.65,-354.07"/>
</g>
<!-- astropy&#45;&gt;ICRS -->
<g id="edge24" class="edge">
<title>astropy&#45;&gt;ICRS</title>
<path fill="none" stroke="black" d="M609.62,-322.81C575.16,-336.03 526.3,-353.92 493.83,-365.15"/>
<polygon fill="black" stroke="black" points="492.64,-361.86 484.31,-368.41 494.91,-368.48 492.64,-361.86"/>
</g>
</g>
</svg>
